<svg width="25" height="25" viewBox="0 0 25 25" fill="none" xmlns="http://www.w3.org/2000/svg">
<path d="M6.37401 17.4956C5.74755 17.5874 4.7163 17.7583 4.03026 16.98C3.34423 16.2017 2.75097 14.3223 2.49022 12.6426C2.10546 10.167 2.48729 8.08058 3.56444 6.76808C4.19921 5.99513 5.03222 5.54738 5.97362 5.47609C6.77977 5.41408 7.98436 5.72951 9.14745 7.58498C9.87597 8.74757 10.4302 10.292 10.668 11.8218C10.9551 13.6685 11.2349 15.6392 10.2558 16.3457C9.7036 16.7446 9.30712 16.8828 8.37011 17.106C7.5996 17.2891 7.00097 17.4033 6.37401 17.4956ZM5.25975 19.084L10.5766 17.9873C11.0259 17.8945 11.3862 18.1416 11.5532 18.8819C12.1011 21.3115 11.3159 24.2188 8.85692 24.2188C6.52831 24.2188 4.97655 21.5645 4.72313 20.1377C4.60741 19.4907 4.77245 19.1841 5.25975 19.084ZM16.6304 12.419C15.6933 12.1968 15.2969 12.0576 14.7446 11.6587C13.7656 10.9522 14.0454 8.98146 14.3325 7.13478C14.5703 5.605 15.1245 4.05861 15.853 2.89796C17.0151 1.0425 18.2197 0.727066 19.0268 0.789077C19.9673 0.860855 20.8008 1.30763 21.4355 2.08058C22.5137 3.39308 22.8955 5.47951 22.5098 7.95509C22.2485 9.63478 21.6572 11.5078 20.9673 12.2925C20.2773 13.0772 19.2519 12.8999 18.6235 12.8081C17.9951 12.7163 17.4004 12.6016 16.6304 12.419ZM19.7402 14.3965L14.4233 13.2998C13.9741 13.207 13.6138 13.4541 13.4468 14.1944C12.8994 16.624 13.6846 19.5313 16.1435 19.5313C18.4722 19.5313 20.0239 16.877 20.2773 15.4502C20.3926 14.8032 20.2275 14.4966 19.7402 14.3965Z" fill="white"/>
</svg>
