<svg width="41" height="41" viewBox="0 0 41 41" fill="none" xmlns="http://www.w3.org/2000/svg">
<path d="M30.1689 19.1333C29.776 18.6208 29.2977 18.1767 28.8535 17.7325C27.7089 16.7075 26.4106 15.9729 25.3173 14.8967C22.7719 12.4025 22.2081 8.28542 23.831 5.125C22.2081 5.51792 20.7902 6.40625 19.5773 7.38C15.1527 10.9333 13.4102 17.2029 15.4944 22.5842C15.5627 22.755 15.631 22.9258 15.631 23.1479C15.631 23.5238 15.3748 23.8654 15.0331 24.0021C14.6402 24.1729 14.2302 24.0704 13.9056 23.7971C13.8087 23.7159 13.7276 23.6174 13.6664 23.5067C11.736 21.0638 11.4285 17.5617 12.7269 14.76C9.87395 17.0833 8.31936 21.0125 8.54145 24.7196C8.64395 25.5738 8.74645 26.4279 9.03686 27.2821C9.27603 28.3071 9.73728 29.3321 10.2498 30.2375C12.0948 33.1929 15.2894 35.3113 18.7231 35.7383C22.3789 36.1996 26.291 35.5333 29.0927 33.005C32.219 30.1692 33.3123 25.625 31.7064 21.73L31.4844 21.2858C31.1256 20.5 30.1689 19.1333 30.1689 19.1333ZM24.7706 29.8958C24.2923 30.3058 23.5064 30.75 22.8914 30.9208C20.9781 31.6042 19.0648 30.6475 17.9373 29.52C19.9702 29.0417 21.1831 27.5383 21.5419 26.0179C21.8323 24.6512 21.2856 23.5238 21.0635 22.2083C20.8585 20.9442 20.8927 19.8679 21.3539 18.6892C21.6785 19.3383 22.0202 19.9875 22.4302 20.5C23.7456 22.2083 25.8127 22.96 26.2569 25.2833C26.3252 25.5225 26.3594 25.7617 26.3594 26.0179C26.4106 27.4187 25.7956 28.9563 24.7706 29.8958Z" fill="#E35420"/>
</svg>
