<svg width="26" height="26" viewBox="0 0 26 26" fill="none" xmlns="http://www.w3.org/2000/svg">
<path fill-rule="evenodd" clip-rule="evenodd" d="M3.33246 6.08492C3.41452 5.88701 3.55341 5.71788 3.73159 5.5989C3.90976 5.47992 4.11921 5.41645 4.33346 5.4165H15.1668C16.1627 5.4165 17.1488 5.61265 18.0688 5.99375C18.9889 6.37485 19.8248 6.93343 20.529 7.63761C21.2332 8.34179 21.7918 9.17777 22.1729 10.0978C22.554 11.0179 22.7501 12.004 22.7501 12.9998C22.7501 13.9957 22.554 14.9818 22.1729 15.9019C21.7918 16.8219 21.2332 17.6579 20.529 18.3621C19.8248 19.0662 18.9889 19.6248 18.0688 20.0059C17.1488 20.387 16.1627 20.5832 15.1668 20.5832H5.41679C5.12947 20.5832 4.85392 20.469 4.65076 20.2659C4.4476 20.0627 4.33346 19.7872 4.33346 19.4998C4.33346 19.2125 4.4476 18.937 4.65076 18.7338C4.85392 18.5306 5.12947 18.4165 5.41679 18.4165H15.1668C16.6034 18.4165 17.9811 17.8458 18.997 16.83C20.0128 15.8142 20.5835 14.4364 20.5835 12.9998C20.5835 11.5632 20.0128 10.1855 18.997 9.16968C17.9811 8.15385 16.6034 7.58317 15.1668 7.58317H6.94863L8.89104 9.52559C9.08838 9.72991 9.19757 10.0036 9.19511 10.2876C9.19264 10.5717 9.0787 10.8434 8.87785 11.0442C8.67699 11.2451 8.40527 11.359 8.12123 11.3615C7.83718 11.364 7.56353 11.2548 7.35921 11.0574L3.56754 7.26575C3.41595 7.11426 3.3127 6.9212 3.27085 6.711C3.22901 6.50081 3.25045 6.28293 3.33246 6.08492Z" fill="black"/>
</svg>
